<svg width="145" height="145" viewBox="0 0 145 145" fill="none" xmlns="http://www.w3.org/2000/svg">
<path d="M72.5 137.448C36.673 137.448 7.55212 108.327 7.55212 72.4999C7.55212 36.6728 36.673 7.552 72.5 7.552C108.327 7.552 137.448 36.6728 137.448 72.4999C137.448 108.327 108.327 137.448 72.5 137.448ZM72.5 16.6145C41.6875 16.6145 16.6146 41.6874 16.6146 72.4999C16.6146 103.312 41.6875 128.385 72.5 128.385C103.313 128.385 128.385 103.312 128.385 72.4999C128.385 41.6874 103.313 16.6145 72.5 16.6145Z" fill="#2E3E5C"/>
<path d="M96.6667 77.0312H48.3334C45.8563 77.0312 43.8021 74.9771 43.8021 72.5C43.8021 70.0229 45.8563 67.9688 48.3334 67.9688H96.6667C99.1438 67.9688 101.198 70.0229 101.198 72.5C101.198 74.9771 99.1438 77.0312 96.6667 77.0312Z" fill="#2E3E5C"/>
<path d="M72.5 101.198C70.0229 101.198 67.9688 99.1437 67.9688 96.6666V48.3333C67.9688 45.8562 70.0229 43.802 72.5 43.802C74.9771 43.802 77.0312 45.8562 77.0312 48.3333V96.6666C77.0312 99.1437 74.9771 101.198 72.5 101.198Z" fill="#2E3E5C"/>
</svg>
