<svg width="145" height="145" viewBox="0 0 145 145" fill="none" xmlns="http://www.w3.org/2000/svg">
<path d="M72.5 12.0833C39.2105 12.0833 12.0834 39.2103 12.0834 72.4999C12.0834 105.79 39.2105 132.917 72.5 132.917C105.79 132.917 132.917 105.79 132.917 72.4999C132.917 39.2103 105.79 12.0833 72.5 12.0833ZM96.6667 77.0312H77.0313V96.6666C77.0313 99.1437 74.9771 101.198 72.5 101.198C70.023 101.198 67.9688 99.1437 67.9688 96.6666V77.0312H48.3334C45.8563 77.0312 43.8021 74.977 43.8021 72.4999C43.8021 70.0228 45.8563 67.9687 48.3334 67.9687H67.9688V48.3333C67.9688 45.8562 70.023 43.802 72.5 43.802C74.9771 43.802 77.0313 45.8562 77.0313 48.3333V67.9687H96.6667C99.1438 67.9687 101.198 70.0228 101.198 72.4999C101.198 74.977 99.1438 77.0312 96.6667 77.0312Z" fill="#2E3E5C"/>
</svg>
