<svg width="145" height="145" viewBox="0 0 145 145" fill="none" xmlns="http://www.w3.org/2000/svg">
<path d="M74.4938 128.929C67.9083 128.929 61.3229 126.452 56.3083 121.438C46.2792 111.408 46.2792 95.1563 56.3083 85.1271L71.2917 70.2042C73.0438 68.4521 75.9438 68.4521 77.6958 70.2042C79.4479 71.9563 79.4479 74.8563 77.6958 76.6084L62.7125 91.5313C56.2479 97.9959 56.2479 108.569 62.7125 115.033C69.1771 121.498 79.75 121.498 86.2146 115.033L109.717 91.5313C116.846 84.4021 120.773 74.9167 120.773 64.8271C120.773 54.7375 116.846 45.2521 109.717 38.123C94.975 23.3813 71.05 23.3813 56.3083 38.123L30.6917 63.7396C24.7104 69.7209 21.3875 77.6959 21.3875 86.1542C21.3875 94.6126 24.7104 102.588 30.6917 108.569C32.4438 110.321 32.4438 113.221 30.6917 114.973C28.9396 116.725 26.0396 116.725 24.2875 114.973C16.6146 107.24 12.325 97.0292 12.325 86.1542C12.325 75.2792 16.5542 65.0084 24.2875 57.3355L49.9042 31.7188C68.15 13.473 97.875 13.473 116.121 31.7188C124.942 40.5396 129.835 52.3209 129.835 64.8271C129.835 77.3334 124.942 89.1146 116.121 97.9355L92.6188 121.438C87.6042 126.452 81.0792 128.929 74.4938 128.929Z" fill="#2E3E5C"/>
</svg>
