<svg width="22" height="22" viewBox="0 0 22 22" fill="none" xmlns="http://www.w3.org/2000/svg">
<path d="M5.76005 21H16.24C19 21 20.1 19.31 20.23 17.25L20.75 8.99C20.89 6.83 19.17 5 17 5C16.39 5 15.83 4.65 15.55 4.11L14.83 2.66C14.37 1.75 13.17 1 12.15 1H9.86005C8.83005 1 7.63005 1.75 7.17005 2.66L6.45005 4.11C6.17005 4.65 5.61005 5 5.00005 5C2.83005 5 1.11005 6.83 1.25005 8.99L1.77005 17.25C1.89005 19.31 3.00005 21 5.76005 21Z" stroke="#292D32" stroke-width="1.5" stroke-linecap="round" stroke-linejoin="round"/>
<path d="M9.5 7H12.5" stroke="#292D32" stroke-width="1.5" stroke-linecap="round" stroke-linejoin="round"/>
<path d="M11 17C12.79 17 14.25 15.54 14.25 13.75C14.25 11.96 12.79 10.5 11 10.5C9.21 10.5 7.75 11.96 7.75 13.75C7.75 15.54 9.21 17 11 17Z" stroke="#292D32" stroke-width="1.5" stroke-linecap="round" stroke-linejoin="round"/>
</svg>
