<svg width="145" height="145" viewBox="0 0 145 145" fill="none" xmlns="http://www.w3.org/2000/svg">
<path d="M102.708 12.0834H42.2917C25.6167 12.0834 12.0834 25.5563 12.0834 42.1709V78.3V84.3417C12.0834 100.956 25.6167 114.429 42.2917 114.429H51.3542C52.9855 114.429 55.1605 115.517 56.1875 116.846L65.25 128.869C69.2375 134.185 75.7625 134.185 79.75 128.869L88.8125 116.846C89.9605 115.335 91.773 114.429 93.6459 114.429H102.708C119.383 114.429 132.917 100.956 132.917 84.3417V42.1709C132.917 25.5563 119.383 12.0834 102.708 12.0834ZM78.5417 83.073H42.2917C39.8146 83.073 37.7605 81.0188 37.7605 78.5417C37.7605 76.0646 39.8146 74.0105 42.2917 74.0105H78.5417C81.0188 74.0105 83.073 76.0646 83.073 78.5417C83.073 81.0188 81.0188 83.073 78.5417 83.073ZM102.708 52.8646H42.2917C39.8146 52.8646 37.7605 50.8105 37.7605 48.3334C37.7605 45.8563 39.8146 43.8021 42.2917 43.8021H102.708C105.185 43.8021 107.24 45.8563 107.24 48.3334C107.24 50.8105 105.185 52.8646 102.708 52.8646Z" fill="#2E3E5C"/>
</svg>
