<svg width="145" height="145" viewBox="0 0 145 145" fill="none" xmlns="http://www.w3.org/2000/svg">
<path d="M72.5 137.81C68.3313 137.81 64.4042 135.696 61.625 132.01L52.5625 119.927C52.3813 119.685 51.6563 119.383 51.3542 119.323H48.3334C23.1396 119.323 7.55212 112.496 7.55212 78.5417V48.3334C7.55212 21.6292 21.6292 7.55212 48.3334 7.55212H96.6667C123.371 7.55212 137.448 21.6292 137.448 48.3334V78.5417C137.448 105.246 123.371 119.323 96.6667 119.323H93.6459C93.1625 119.323 92.7396 119.565 92.4375 119.927L83.375 132.01C80.5959 135.696 76.6688 137.81 72.5 137.81ZM48.3334 16.6146C26.7042 16.6146 16.6146 26.7042 16.6146 48.3334V78.5417C16.6146 105.85 25.9792 110.26 48.3334 110.26H51.3542C54.4355 110.26 57.9396 112.013 59.8125 114.49L68.875 126.573C70.9896 129.352 74.0105 129.352 76.125 126.573L85.1875 114.49C87.1813 111.831 90.323 110.26 93.6459 110.26H96.6667C118.296 110.26 128.385 100.171 128.385 78.5417V48.3334C128.385 26.7042 118.296 16.6146 96.6667 16.6146H48.3334Z" fill="#2E3E5C"/>
<path d="M102.708 52.8646H42.2916C39.8145 52.8646 37.7604 50.8105 37.7604 48.3334C37.7604 45.8563 39.8145 43.8021 42.2916 43.8021H102.708C105.185 43.8021 107.24 45.8563 107.24 48.3334C107.24 50.8105 105.185 52.8646 102.708 52.8646Z" fill="#2E3E5C"/>
<path d="M78.5416 83.0729H42.2916C39.8145 83.0729 37.7604 81.0187 37.7604 78.5416C37.7604 76.0645 39.8145 74.0104 42.2916 74.0104H78.5416C81.0187 74.0104 83.0729 76.0645 83.0729 78.5416C83.0729 81.0187 81.0187 83.0729 78.5416 83.0729Z" fill="#2E3E5C"/>
</svg>
