<svg width="145" height="145" viewBox="0 0 145 145" fill="none" xmlns="http://www.w3.org/2000/svg">
<path d="M90.625 137.448H54.375C21.5688 137.448 7.55212 123.431 7.55212 90.6249V54.3749C7.55212 21.5687 21.5688 7.552 54.375 7.552H66.4584C68.9355 7.552 70.9896 9.60617 70.9896 12.0833C70.9896 14.5603 68.9355 16.6145 66.4584 16.6145H54.375C26.523 16.6145 16.6146 26.5228 16.6146 54.3749V90.6249C16.6146 118.477 26.523 128.385 54.375 128.385H90.625C118.477 128.385 128.385 118.477 128.385 90.6249V78.5416C128.385 76.0645 130.44 74.0103 132.917 74.0103C135.394 74.0103 137.448 76.0645 137.448 78.5416V90.6249C137.448 123.431 123.431 137.448 90.625 137.448Z" fill="#2E3E5C"/>
<path d="M51.3542 106.877C47.6688 106.877 44.2854 105.548 41.8083 103.131C38.8479 100.171 37.5792 95.8813 38.2438 91.35L40.8417 73.1646C41.325 69.6605 43.6208 65.1292 46.0979 62.6521L93.7062 15.0438C105.729 3.02088 117.933 3.02088 129.956 15.0438C136.542 21.6292 139.502 28.3355 138.898 35.0417C138.354 40.4792 135.454 45.7959 129.956 51.2334L82.3479 98.8417C79.8708 101.319 75.3396 103.615 71.8354 104.098L53.65 106.696C52.8646 106.877 52.0792 106.877 51.3542 106.877ZM100.11 21.448L52.5021 69.0563C51.3542 70.2042 50.025 72.8625 49.7833 74.4334L47.1854 92.6188C46.9438 94.3709 47.3063 95.8209 48.2125 96.7271C49.1188 97.6334 50.5688 97.9959 52.3208 97.7542L70.5063 95.1563C72.0771 94.9146 74.7958 93.5855 75.8833 92.4375L123.492 44.8292C127.419 40.9021 129.473 37.398 129.775 34.1355C130.137 30.2084 128.083 26.0396 123.492 21.3875C113.825 11.7209 107.179 14.4396 100.11 21.448Z" fill="#2E3E5C"/>
<path d="M119.927 59.3897C119.504 59.3897 119.081 59.3293 118.719 59.2084C102.829 54.7376 90.202 42.1105 85.7312 26.2209C85.0666 23.8043 86.4562 21.3272 88.8729 20.6022C91.2895 19.9376 93.7666 21.3272 94.4312 23.7438C98.0562 36.6126 108.267 46.823 121.135 50.448C123.552 51.1126 124.942 53.6501 124.277 56.0668C123.733 58.1209 121.921 59.3897 119.927 59.3897Z" fill="#2E3E5C"/>
</svg>
