<svg width="145" height="145" viewBox="0 0 145 145" fill="none" xmlns="http://www.w3.org/2000/svg">
<path d="M97.8146 12.0833H47.1855C25.1938 12.0833 12.0834 25.1937 12.0834 47.1853V97.7541C12.0834 119.806 25.1938 132.917 47.1855 132.917H97.7542C119.746 132.917 132.856 119.806 132.856 97.8145V47.1853C132.917 25.1937 119.806 12.0833 97.8146 12.0833ZM66.1563 105.79C64.4042 107.542 61.0813 109.233 58.6646 109.596L43.8021 111.71C43.2584 111.771 42.7146 111.831 42.1709 111.831C39.6938 111.831 37.398 110.985 35.7667 109.354C33.773 107.36 32.9271 104.46 33.4105 101.258L35.525 86.3958C35.8875 83.9187 37.5188 80.6562 39.3313 78.9041L66.2771 51.9583C66.7605 53.227 67.2438 54.4958 67.9084 55.9458C68.5125 57.2145 69.1771 58.5437 69.9021 59.752C70.5063 60.7791 71.1709 61.7458 71.7146 62.4708C72.3792 63.4978 73.1646 64.4645 73.648 65.0083C73.95 65.4312 74.1917 65.7333 74.3125 65.8541C75.823 67.6666 77.575 69.3583 79.0855 70.627C79.5084 71.0499 79.75 71.2916 79.8709 71.352C80.7771 72.077 81.6834 72.802 82.4688 73.3458C83.4355 74.0708 84.4021 74.7353 85.4292 75.2791C86.6376 76.0041 87.9667 76.6687 89.2959 77.3333C90.6855 77.9374 91.9542 78.4812 93.223 78.9041L66.1563 105.79ZM104.944 67.002L99.3855 72.6208C99.023 72.9833 98.5396 73.1645 98.0563 73.1645C97.875 73.1645 97.6334 73.1645 97.5125 73.1041C85.248 69.5999 75.4605 59.8124 71.9563 47.5478C71.775 46.8833 71.9563 46.1583 72.4396 45.7353L78.0584 40.1166C87.2417 30.9333 96.0021 31.1145 105.004 40.1166C109.596 44.7083 111.831 49.1187 111.831 53.7103C111.771 58.0603 109.535 62.4103 104.944 67.002Z" fill="#2E3E5C"/>
</svg>
