<svg width="145" height="145" viewBox="0 0 145 145" fill="none" xmlns="http://www.w3.org/2000/svg">
<path d="M128.385 55.2812C114.429 33.35 94.0084 20.7229 72.5 20.7229C61.7459 20.7229 51.2938 23.8646 41.748 29.725C32.2021 35.6458 23.623 44.2854 16.6146 55.2812C10.573 64.7666 10.573 80.1729 16.6146 89.6583C30.5709 111.65 50.9917 124.217 72.5 124.217C83.2542 124.217 93.7063 121.075 103.252 115.215C112.798 109.294 121.377 100.654 128.385 89.6583C134.427 80.2333 134.427 64.7666 128.385 55.2812ZM72.5 96.9083C58.9667 96.9083 48.0917 85.9729 48.0917 72.5C48.0917 59.0271 58.9667 48.0916 72.5 48.0916C86.0334 48.0916 96.9084 59.0271 96.9084 72.5C96.9084 85.9729 86.0334 96.9083 72.5 96.9083Z" fill="#2E3E5C"/>
<path d="M72.5 55.2209C63.0146 55.2209 55.2812 62.9543 55.2812 72.5001C55.2812 81.9855 63.0146 89.7189 72.5 89.7189C81.9854 89.7189 89.7792 81.9855 89.7792 72.5001C89.7792 63.0147 81.9854 55.2209 72.5 55.2209Z" fill="#2E3E5C"/>
</svg>
