<svg width="145" height="145" viewBox="0 0 145 145" fill="none" xmlns="http://www.w3.org/2000/svg">
<path d="M128.506 55.4624C126.754 52.6832 124.881 50.0853 122.948 47.6687C120.713 44.8291 116.483 44.5874 113.946 47.1249L95.8209 65.2499C97.15 69.2374 97.3917 73.8291 96.1834 78.602C94.0688 87.1207 87.1813 94.0082 78.6625 96.1228C73.8896 97.3312 69.298 97.0895 65.3105 95.7603C65.3105 95.7603 56.6709 104.4 50.448 110.623C47.4271 113.644 48.3938 118.96 52.4417 120.531C58.9063 123.008 65.6125 124.277 72.5 124.277C83.2542 124.277 93.7063 121.135 103.252 115.275C112.979 109.233 121.74 100.352 128.808 89.0541C134.548 79.9312 134.246 64.5853 128.506 55.4624Z" fill="#2E3E5C"/>
<path d="M84.7042 60.2959L60.2958 84.7043C57.2146 81.5626 55.2208 77.2126 55.2208 72.5001C55.2208 63.0147 62.9542 55.2209 72.5 55.2209C77.2125 55.2209 81.5625 57.2147 84.7042 60.2959Z" fill="#2E3E5C"/>
<path d="M110.26 34.7396L89.7792 55.2208C85.3688 50.75 79.2667 48.0916 72.5 48.0916C58.9667 48.0916 48.0917 59.0271 48.0917 72.5C48.0917 79.2666 50.8105 85.3687 55.2209 89.7791L34.8 110.26H34.7396C28.0334 104.823 21.8709 97.875 16.6146 89.6583C10.573 80.1729 10.573 64.7666 16.6146 55.2812C23.623 44.2854 32.2021 35.6458 41.748 29.725C51.2938 23.925 61.7459 20.7229 72.5 20.7229C85.973 20.7229 99.023 25.6771 110.26 34.7396Z" fill="#2E3E5C"/>
<path d="M89.7791 72.5C89.7791 81.9854 82.0458 89.7791 72.5 89.7791C72.1375 89.7791 71.8354 89.7792 71.4729 89.6583L89.6583 71.4729C89.7792 71.8354 89.7791 72.1375 89.7791 72.5Z" fill="#2E3E5C"/>
<path d="M131.527 13.4729C129.715 11.6604 126.754 11.6604 124.942 13.4729L13.4729 125.002C11.6604 126.815 11.6604 129.775 13.4729 131.587C14.3792 132.433 15.5271 132.917 16.7354 132.917C17.9437 132.917 19.0916 132.433 19.9979 131.527L131.527 19.9979C133.4 18.1854 133.4 15.2854 131.527 13.4729Z" fill="#2E3E5C"/>
</svg>
