<svg width="145" height="145" viewBox="0 0 145 145" fill="none" xmlns="http://www.w3.org/2000/svg">
<path d="M97.8146 12.0833H47.1854C25.1937 12.0833 12.0833 25.1937 12.0833 47.1853V97.7541C12.0833 119.806 25.1937 132.917 47.1854 132.917H97.7542C119.746 132.917 132.856 119.806 132.856 97.8145V47.1853C132.917 25.1937 119.806 12.0833 97.8146 12.0833ZM46.3396 33.2291C46.3396 30.752 48.3937 28.6978 50.8708 28.6978C53.3479 28.6978 55.4021 30.752 55.4021 33.2291V56.7916C55.4021 59.2687 53.3479 61.3228 50.8708 61.3228C48.3937 61.3228 46.3396 59.2687 46.3396 56.7916V33.2291ZM55.7622 99.9413C55.5498 100.008 55.4021 100.203 55.4021 100.426V111.771C55.4021 114.248 53.3479 116.302 50.8708 116.302C48.3937 116.302 46.3396 114.248 46.3396 111.771V100.426C46.3396 100.203 46.1918 100.008 45.9794 99.9412C39.2779 97.8357 34.4375 91.6416 34.4375 84.2812C34.4375 75.2187 41.8083 67.7874 50.8708 67.7874C59.9333 67.7874 67.3646 75.1583 67.3646 84.2812C67.3646 91.6416 62.4657 97.8357 55.7622 99.9413ZM98.6604 111.771C98.6604 114.248 96.6062 116.302 94.1292 116.302C91.6521 116.302 89.5979 114.248 89.5979 111.771V88.2083C89.5979 85.7312 91.6521 83.677 94.1292 83.677C96.6062 83.677 98.6604 85.7312 98.6604 88.2083V111.771ZM94.1292 77.152C85.0666 77.152 77.6354 69.7812 77.6354 60.6583C77.6354 53.2978 82.5342 47.1037 89.2378 44.9982C89.4501 44.9315 89.5979 44.7363 89.5979 44.5137V33.2291C89.5979 30.752 91.6521 28.6978 94.1292 28.6978C96.6062 28.6978 98.6604 30.752 98.6604 33.2291V44.5741C98.6604 44.7967 98.8082 44.9919 99.0206 45.0586C105.722 47.1642 110.562 53.3582 110.562 60.7187C110.562 69.7812 103.192 77.152 94.1292 77.152Z" fill="#2E3E5C"/>
</svg>
