<svg width="145" height="145" viewBox="0 0 145 145" fill="none" xmlns="http://www.w3.org/2000/svg">
<path d="M90.625 137.448H54.375C21.5687 137.448 7.55206 123.431 7.55206 90.6249V54.3749C7.55206 21.5687 21.5687 7.552 54.375 7.552H90.625C123.431 7.552 137.448 21.5687 137.448 54.3749V90.6249C137.448 123.431 123.431 137.448 90.625 137.448ZM54.375 16.6145C26.5229 16.6145 16.6146 26.5228 16.6146 54.3749V90.6249C16.6146 118.477 26.5229 128.385 54.375 128.385H90.625C118.477 128.385 128.385 118.477 128.385 90.6249V54.3749C128.385 26.5228 118.477 16.6145 90.625 16.6145H54.375Z" fill="#2E3E5C"/>
<path d="M94.1292 116.302C91.6521 116.302 89.5979 114.248 89.5979 111.771V88.2083C89.5979 85.7312 91.6521 83.677 94.1292 83.677C96.6062 83.677 98.6604 85.7312 98.6604 88.2083V111.771C98.6604 114.248 96.6062 116.302 94.1292 116.302Z" fill="#2E3E5C"/>
<path d="M94.1292 49.5417C91.6521 49.5417 89.5979 47.4876 89.5979 45.0105V33.2292C89.5979 30.7522 91.6521 28.698 94.1292 28.698C96.6062 28.698 98.6604 30.7522 98.6604 33.2292V45.0105C98.6604 47.4876 96.6062 49.5417 94.1292 49.5417Z" fill="#2E3E5C"/>
<path d="M94.1292 80.9584C82.9521 80.9584 73.8896 71.8959 73.8896 60.7188C73.8896 49.5417 82.9521 40.4792 94.1292 40.4792C105.306 40.4792 114.369 49.5417 114.369 60.7188C114.369 71.8959 105.246 80.9584 94.1292 80.9584ZM94.1292 49.5417C87.9667 49.5417 82.9521 54.5563 82.9521 60.7188C82.9521 66.8813 87.9667 71.8959 94.1292 71.8959C100.292 71.8959 105.306 66.8813 105.306 60.7188C105.306 54.5563 100.231 49.5417 94.1292 49.5417Z" fill="#2E3E5C"/>
<path d="M50.8708 116.302C48.3938 116.302 46.3396 114.248 46.3396 111.771V99.9895C46.3396 97.5124 48.3938 95.4583 50.8708 95.4583C53.3479 95.4583 55.4021 97.5124 55.4021 99.9895V111.771C55.4021 114.248 53.4083 116.302 50.8708 116.302Z" fill="#2E3E5C"/>
<path d="M50.8708 61.323C48.3938 61.323 46.3396 59.2688 46.3396 56.7917V33.2292C46.3396 30.7522 48.3938 28.698 50.8708 28.698C53.3479 28.698 55.4021 30.7522 55.4021 33.2292V56.7917C55.4021 59.2688 53.4083 61.323 50.8708 61.323Z" fill="#2E3E5C"/>
<path d="M50.8708 104.521C39.6937 104.521 30.6312 95.4584 30.6312 84.2813C30.6312 73.1042 39.6937 64.0417 50.8708 64.0417C62.0479 64.0417 71.1104 73.1042 71.1104 84.2813C71.1104 95.4584 62.0479 104.521 50.8708 104.521ZM50.8708 73.1042C44.7083 73.1042 39.6937 78.1188 39.6937 84.2813C39.6937 90.4438 44.7083 95.4584 50.8708 95.4584C57.0333 95.4584 62.0479 90.4438 62.0479 84.2813C62.0479 78.1188 57.0937 73.1042 50.8708 73.1042Z" fill="#2E3E5C"/>
</svg>
