<svg width="145" height="145" viewBox="0 0 145 145" fill="none" xmlns="http://www.w3.org/2000/svg">
<path d="M126.694 6.04175H108.931C103.675 6.04175 99.8083 8.21675 98.0562 12.0834C97.0895 13.8355 96.6666 15.8897 96.6666 18.3063V36.0688C96.6666 43.7417 101.258 48.3334 108.931 48.3334H126.694C129.11 48.3334 131.165 47.9105 132.917 46.9438C136.783 45.1918 138.958 41.3251 138.958 36.0688V18.3063C138.958 10.6334 134.367 6.04175 126.694 6.04175ZM132.373 29.7855C131.769 30.3897 130.862 30.8126 129.896 30.873H121.377V33.9542L121.437 39.2709C121.377 40.298 121.015 41.1438 120.29 41.8688C119.685 42.473 118.779 42.8959 117.812 42.8959C115.819 42.8959 114.187 41.2647 114.187 39.2709V30.8126L105.729 30.873C103.735 30.873 102.104 29.1813 102.104 27.1876C102.104 25.1938 103.735 23.5626 105.729 23.5626L111.046 23.623H114.187V15.1647C114.187 13.1709 115.819 11.4792 117.812 11.4792C119.806 11.4792 121.437 13.1709 121.437 15.1647L121.377 19.4542V23.5626H129.896C131.89 23.5626 133.521 25.1938 133.521 27.1876C133.46 28.2147 133.037 29.0605 132.373 29.7855Z" fill="#2E3E5C"/>
<path d="M54.375 62.7124C62.3164 62.7124 68.7542 56.2747 68.7542 48.3333C68.7542 40.3919 62.3164 33.9541 54.375 33.9541C46.4336 33.9541 39.9958 40.3919 39.9958 48.3333C39.9958 56.2747 46.4336 62.7124 54.375 62.7124Z" fill="#2E3E5C"/>
<path d="M126.694 48.3333H123.854V76.1853L123.069 75.5208C118.356 71.4728 110.744 71.4728 106.031 75.5208L80.898 97.0895C76.1855 101.137 68.573 101.137 63.8605 97.0895L61.8063 95.3978C57.5167 91.652 50.6896 91.2895 45.8563 94.552L23.2605 109.717C21.9313 106.333 21.1459 102.406 21.1459 97.8145V47.1853C21.1459 30.1478 30.148 21.1458 47.1855 21.1458H96.6667V18.3062C96.6667 15.8895 97.0896 13.8353 98.0563 12.0833H47.1855C25.1938 12.0833 12.0834 25.1937 12.0834 47.1853V97.8145C12.0834 104.4 13.2313 110.14 15.4667 114.973C20.6625 126.452 31.7792 132.917 47.1855 132.917H97.8146C119.806 132.917 132.917 119.806 132.917 97.8145V46.9437C131.165 47.9103 129.11 48.3333 126.694 48.3333Z" fill="#2E3E5C"/>
</svg>
