<svg width="145" height="145" viewBox="0 0 145 145" fill="none" xmlns="http://www.w3.org/2000/svg">
<path d="M54.375 64.9479C45.1916 64.9479 37.7604 57.5167 37.7604 48.3333C37.7604 39.15 45.1916 31.7188 54.375 31.7188C63.5583 31.7188 70.9895 39.15 70.9895 48.3333C70.9895 57.5167 63.5583 64.9479 54.375 64.9479ZM54.375 40.7813C50.2062 40.7813 46.8229 44.1646 46.8229 48.3333C46.8229 52.5021 50.2062 55.8854 54.375 55.8854C58.5437 55.8854 61.927 52.5021 61.927 48.3333C61.927 44.1646 58.5437 40.7813 54.375 40.7813Z" fill="#2E3E5C"/>
<path d="M90.625 137.448H54.375C21.5688 137.448 7.55212 123.431 7.55212 90.6249V54.3749C7.55212 21.5687 21.5688 7.552 54.375 7.552H78.5417C81.0188 7.552 83.073 9.60617 83.073 12.0833C83.073 14.5603 81.0188 16.6145 78.5417 16.6145H54.375C26.523 16.6145 16.6146 26.5228 16.6146 54.3749V90.6249C16.6146 118.477 26.523 128.385 54.375 128.385H90.625C118.477 128.385 128.385 118.477 128.385 90.6249V60.4166C128.385 57.9395 130.44 55.8853 132.917 55.8853C135.394 55.8853 137.448 57.9395 137.448 60.4166V90.6249C137.448 123.431 123.431 137.448 90.625 137.448Z" fill="#2E3E5C"/>
<path d="M128.385 34.7395H95.1563C92.6792 34.7395 90.625 32.6853 90.625 30.2083C90.625 27.7312 92.6792 25.677 95.1563 25.677H128.385C130.863 25.677 132.917 27.7312 132.917 30.2083C132.917 32.6853 130.863 34.7395 128.385 34.7395Z" fill="#2E3E5C"/>
<path d="M111.771 51.3542C109.294 51.3542 107.24 49.3 107.24 46.8229V13.5938C107.24 11.1167 109.294 9.0625 111.771 9.0625C114.248 9.0625 116.302 11.1167 116.302 13.5938V46.8229C116.302 49.3 114.248 51.3542 111.771 51.3542Z" fill="#2E3E5C"/>
<path d="M16.1313 119.021C14.6813 119.021 13.2313 118.296 12.3854 117.027C10.9959 114.973 11.5396 112.133 13.5938 110.744L43.3792 90.7458C49.9042 86.3958 58.9063 86.8791 64.8271 91.8937L66.8209 93.6458C69.8417 96.2437 74.9771 96.2437 77.9375 93.6458L103.071 72.0771C109.535 66.5791 119.565 66.5791 126.029 72.0771L135.877 80.5354C137.75 82.1666 137.992 85.0062 136.36 86.9396C134.729 88.8125 131.89 89.0541 129.956 87.4229L120.108 78.9645C117.088 76.3666 111.952 76.3666 108.992 78.9645L83.8584 100.533C77.4542 106.031 67.3646 106.031 60.9 100.533L58.9063 98.7812C56.1271 96.425 51.5354 96.1833 48.4542 98.2979L18.7292 118.296C17.8834 118.779 16.9771 119.021 16.1313 119.021Z" fill="#2E3E5C"/>
</svg>
