<svg width="145" height="145" viewBox="0 0 145 145" fill="none" xmlns="http://www.w3.org/2000/svg">
<path d="M92.0749 134.548H91.2895C64.4645 134.548 51.5354 123.975 49.2999 100.292C49.0583 97.8147 50.8708 95.5792 53.4083 95.3376C55.825 95.0959 58.1208 96.9688 58.3624 99.4459C60.1145 118.417 69.0562 125.485 91.3499 125.485H92.1354C116.725 125.485 125.425 116.785 125.425 92.1959V52.8042C125.425 28.2146 116.725 19.5146 92.1354 19.5146H91.3499C68.9354 19.5146 59.9937 26.7042 58.3624 46.0376C58.0604 48.5146 55.9458 50.3876 53.4083 50.1459C50.8708 49.9646 49.0583 47.7292 49.2395 45.2521C51.2937 21.2063 64.2833 10.4521 91.2895 10.4521H92.0749C121.74 10.4521 134.427 23.1396 134.427 52.8042V92.1959C134.427 121.86 121.74 134.548 92.0749 134.548Z" fill="#2E3E5C"/>
<path d="M90.625 77.0312H21.8708C19.3938 77.0312 17.3396 74.9771 17.3396 72.5C17.3396 70.0229 19.3938 67.9688 21.8708 67.9688H90.625C93.1021 67.9688 95.1563 70.0229 95.1563 72.5C95.1563 74.9771 93.1021 77.0312 90.625 77.0312Z" fill="#2E3E5C"/>
<path d="M35.3437 97.271C34.1958 97.271 33.0479 96.848 32.1417 95.9418L11.9021 75.7022C10.15 73.9501 10.15 71.0501 11.9021 69.298L32.1417 49.0584C33.8937 47.3064 36.7937 47.3064 38.5458 49.0584C40.2979 50.8105 40.2979 53.7105 38.5458 55.4626L21.5083 72.5001L38.5458 89.5376C40.2979 91.2897 40.2979 94.1897 38.5458 95.9418C37.7 96.848 36.4917 97.271 35.3437 97.271Z" fill="#2E3E5C"/>
</svg>
