<svg width="145" height="145" viewBox="0 0 145 145" fill="none" xmlns="http://www.w3.org/2000/svg">
<path d="M101.5 12.0833H85.7917C66.4583 12.0833 54.375 24.1666 54.375 43.4999V67.9687H92.1354C94.6125 67.9687 96.6667 70.0228 96.6667 72.4999C96.6667 74.977 94.6125 77.0312 92.1354 77.0312H54.375V101.5C54.375 120.833 66.4583 132.917 85.7917 132.917H101.44C120.773 132.917 132.856 120.833 132.856 101.5V43.4999C132.917 24.1666 120.833 12.0833 101.5 12.0833Z" fill="#2E3E5C"/>
<path d="M27.55 67.9689L40.0562 55.4626C40.9625 54.5564 41.3854 53.4084 41.3854 52.2605C41.3854 51.1126 40.9625 49.9043 40.0562 49.0584C38.3041 47.3064 35.4041 47.3064 33.652 49.0584L13.4125 69.298C11.6604 71.0501 11.6604 73.9501 13.4125 75.7022L33.652 95.9418C35.4041 97.6939 38.3041 97.6939 40.0562 95.9418C41.8083 94.1897 41.8083 91.2897 40.0562 89.5376L27.55 77.0314H54.3749V67.9689H27.55V67.9689Z" fill="#2E3E5C"/>
</svg>
