<svg width="145" height="145" viewBox="0 0 145 145" fill="none" xmlns="http://www.w3.org/2000/svg">
<path d="M96.6667 137.448H18.125C12.325 137.448 7.55212 132.675 7.55212 126.875V48.3333C7.55212 21.6291 21.6292 7.552 48.3334 7.552H96.6667C123.371 7.552 137.448 21.6291 137.448 48.3333V96.6666C137.448 123.371 123.371 137.448 96.6667 137.448ZM48.3334 16.6145C26.7042 16.6145 16.6146 26.7041 16.6146 48.3333V126.875C16.6146 127.721 17.2792 128.385 18.125 128.385H96.6667C118.296 128.385 128.385 118.296 128.385 96.6666V48.3333C128.385 26.7041 118.296 16.6145 96.6667 16.6145H48.3334Z" fill="#2E3E5C"/>
<path d="M48.0297 107.24C45.1901 107.24 42.5922 106.212 40.6589 104.34C38.363 102.044 37.3358 98.7812 37.8796 95.2771L39.5712 83.3146C39.9337 80.7166 41.5651 77.3937 43.438 75.5208L74.7943 44.1646C85.5484 33.4104 94.913 38.2437 100.834 44.1646C105.486 48.8167 107.601 53.7104 107.117 58.6041C106.755 62.5916 104.64 66.3375 100.834 70.2041L69.4776 101.56C67.6046 103.433 64.3421 105.065 61.6838 105.487L49.7214 107.179C49.1776 107.179 48.5735 107.24 48.0297 107.24ZM87.7838 46.8229C85.5484 46.8229 83.5547 48.2729 81.2589 50.5083L49.9026 81.8646C49.4193 82.3479 48.6943 83.8583 48.5734 84.5229L46.8818 96.4854C46.8214 97.0896 46.8817 97.6333 47.1233 97.875C47.365 98.1166 47.9088 98.1771 48.513 98.1167L60.4755 96.425C61.2005 96.3041 62.6506 95.5792 63.1339 95.0958L94.4901 63.7396C96.786 61.4437 97.9942 59.45 98.1755 57.6375C98.3567 55.5833 97.1485 53.1666 94.4901 50.5083C91.8318 47.9708 89.7171 46.8229 87.7838 46.8229Z" fill="#2E3E5C"/>
<path d="M93.1615 76.004C92.7385 76.004 92.3155 75.9436 91.953 75.8227C81.0176 72.7415 72.2573 64.0415 69.176 53.0456C68.5114 50.629 69.901 48.1519 72.3176 47.4269C74.7343 46.7623 77.2115 48.1519 77.876 50.5685C80.1115 58.4831 86.4551 64.8269 94.3697 67.0623C96.7863 67.7269 98.176 70.2644 97.5115 72.681C96.9677 74.6748 95.1552 76.004 93.1615 76.004Z" fill="#2E3E5C"/>
</svg>
