<svg width="145" height="145" viewBox="0 0 145 145" fill="none" xmlns="http://www.w3.org/2000/svg">
<path d="M96.6667 12.0833H48.3334C24.1667 12.0833 12.0834 24.1666 12.0834 48.3333V126.875C12.0834 130.198 14.8021 132.917 18.125 132.917H96.6667C120.833 132.917 132.917 120.833 132.917 96.6666V48.3333C132.917 24.1666 120.833 12.0833 96.6667 12.0833ZM67.123 100.654C65.6125 102.165 62.8334 103.554 60.7792 103.856L48.2125 105.608C47.7292 105.669 47.2459 105.729 46.823 105.729C44.7084 105.729 42.775 105.004 41.3855 103.615C39.6938 101.923 38.9688 99.4458 39.3917 96.7874L41.1438 84.2208C41.4459 82.1666 42.8355 79.327 44.3459 77.877L67.123 55.0999C67.4855 56.1874 67.9688 57.2749 68.5125 58.4833C69.0563 59.5708 69.6 60.6583 70.2042 61.6853C70.6875 62.5312 71.2313 63.377 71.7146 63.9812C72.3188 64.8874 72.923 65.6728 73.3459 66.0958C73.5875 66.4583 73.8292 66.6999 73.8896 66.8208C75.2188 68.3312 76.6084 69.7812 77.9375 70.8687C78.3 71.2312 78.5417 71.4124 78.6021 71.4728C79.3875 72.077 80.1125 72.7416 80.8375 73.1645C81.623 73.7687 82.4688 74.3124 83.3146 74.7958C84.3417 75.3999 85.4292 76.0041 86.5771 76.5478C87.725 77.0916 88.8125 77.5145 89.9 77.877L67.123 100.654ZM99.9896 67.8478L95.2771 72.5603C94.975 72.8624 94.5521 73.0437 94.1292 73.0437C94.0084 73.0437 93.7667 73.0437 93.6459 72.9833C83.2542 70.0228 74.9771 61.7458 72.0167 51.3541C71.8355 50.8103 72.0167 50.2062 72.4396 49.7833L77.2125 45.0103C85.0063 37.2166 92.3771 37.3978 99.9896 45.0103C103.856 48.877 105.79 52.6228 105.729 56.4895C105.729 60.2958 103.856 63.9812 99.9896 67.8478Z" fill="#2E3E5C"/>
</svg>
