<svg width="145" height="145" viewBox="0 0 145 145" fill="none" xmlns="http://www.w3.org/2000/svg">
<path d="M72.5 98.177C56.6708 98.177 43.8021 85.3082 43.8021 69.4791V36.2499C43.8021 20.4208 56.6708 7.552 72.5 7.552C88.3291 7.552 101.198 20.4208 101.198 36.2499V69.4791C101.198 85.3082 88.3291 98.177 72.5 98.177ZM72.5 16.6145C61.6854 16.6145 52.8646 25.4353 52.8646 36.2499V69.4791C52.8646 80.2937 61.6854 89.1145 72.5 89.1145C83.3146 89.1145 92.1354 80.2937 92.1354 69.4791V36.2499C92.1354 25.4353 83.3146 16.6145 72.5 16.6145Z" fill="#2E3E5C"/>
<path d="M72.5 119.323C44.5271 119.323 21.75 96.5458 21.75 68.5728V58.302C21.75 55.8249 23.8042 53.7708 26.2812 53.7708C28.7583 53.7708 30.8125 55.8249 30.8125 58.302V68.5728C30.8125 91.5312 49.5417 110.26 72.5 110.26C95.4583 110.26 114.187 91.5312 114.187 68.5728V58.302C114.187 55.8249 116.242 53.7708 118.719 53.7708C121.196 53.7708 123.25 55.8249 123.25 58.302V68.5728C123.25 96.5458 100.473 119.323 72.5 119.323Z" fill="#2E3E5C"/>
<path d="M80.8979 43.3793C80.4146 43.3793 79.8708 43.3188 79.3271 43.1376C74.9167 41.5063 70.0833 41.5063 65.6729 43.1376C63.3167 43.9834 60.7188 42.7751 59.8729 40.4188C59.0271 38.0626 60.2354 35.4647 62.5917 34.6188C68.9958 32.323 76.0646 32.323 82.4688 34.6188C84.825 35.4647 86.0333 38.0626 85.1875 40.4188C84.4625 42.2313 82.7104 43.3793 80.8979 43.3793Z" fill="#2E3E5C"/>
<path d="M77.3333 56.1876C76.9104 56.1876 76.5479 56.1272 76.125 56.0064C73.7084 55.3418 71.2313 55.3418 68.8146 56.0064C66.3979 56.6709 63.9209 55.2209 63.2563 52.8043C62.5917 50.448 64.0417 47.9709 66.4583 47.3063C70.3854 46.2188 74.6146 46.2188 78.5417 47.3063C80.9583 47.9709 82.4083 50.448 81.7438 52.8647C81.2 54.8584 79.3271 56.1876 77.3333 56.1876Z" fill="#2E3E5C"/>
<path d="M72.5 137.448C70.0229 137.448 67.9688 135.394 67.9688 132.917V114.792C67.9688 112.315 70.0229 110.26 72.5 110.26C74.9771 110.26 77.0312 112.315 77.0312 114.792V132.917C77.0312 135.394 74.9771 137.448 72.5 137.448Z" fill="#2E3E5C"/>
</svg>
