<svg width="145" height="145" viewBox="0 0 145 145" fill="none" xmlns="http://www.w3.org/2000/svg">
<path d="M115.517 55.1C113.16 55.1 111.287 56.9729 111.287 59.3291V68.875C111.287 90.2625 93.8875 107.662 72.5 107.662C51.1125 107.662 33.7125 90.2625 33.7125 68.875V59.2687C33.7125 56.9125 31.8396 55.0396 29.4833 55.0396C27.1271 55.0396 25.2542 56.9125 25.2542 59.2687V68.8146C25.2542 93.4041 44.1646 113.644 68.2708 115.819V128.687C68.2708 131.044 70.1437 132.917 72.5 132.917C74.8562 132.917 76.7292 131.044 76.7292 128.687V115.819C100.775 113.704 119.746 93.4041 119.746 68.8146V59.2687C119.685 56.9729 117.812 55.1 115.517 55.1Z" fill="#2E3E5C"/>
<path d="M72.5 12.0833C57.7583 12.0833 45.7958 24.0458 45.7958 38.7874V69.7208C45.7958 84.4624 57.7583 96.4249 72.5 96.4249C87.2417 96.4249 99.2042 84.4624 99.2042 69.7208V38.7874C99.2042 24.0458 87.2417 12.0833 72.5 12.0833ZM80.4146 54.0728C79.9917 55.6437 78.6021 56.6708 77.0313 56.6708C76.7292 56.6708 76.4271 56.6103 76.125 56.5499C73.7688 55.8853 71.2917 55.8853 68.9354 56.5499C67.0021 57.0937 65.1292 55.9457 64.6458 54.0728C64.1021 52.1999 65.25 50.2666 67.1229 49.7832C70.6875 48.8166 74.4333 48.8166 77.9979 49.7832C79.8104 50.2666 80.8979 52.1999 80.4146 54.0728ZM83.6167 42.352C83.0729 43.802 81.7438 44.6478 80.2938 44.6478C79.8708 44.6478 79.5083 44.5874 79.0854 44.4666C74.8563 42.8958 70.1438 42.8958 65.9146 44.4666C64.1021 45.1312 62.0479 44.1645 61.3833 42.352C60.7188 40.5395 61.6854 38.4853 63.4979 37.8812C69.2979 35.7666 75.7021 35.7666 81.5021 37.8812C83.3146 38.5458 84.2813 40.5395 83.6167 42.352Z" fill="#2E3E5C"/>
</svg>
