<svg width="145" height="145" viewBox="0 0 145 145" fill="none" xmlns="http://www.w3.org/2000/svg">
<path d="M72.6209 124.035C58.5438 124.035 44.4667 121.8 31.1146 117.329C26.0396 115.577 22.1729 112.012 20.4813 107.36C18.7292 102.708 19.3334 97.5729 22.1125 92.9812L29.0604 81.4416C30.5104 79.0249 31.8396 74.1916 31.8396 71.352V53.8916C31.8396 31.4166 50.1459 13.1104 72.6209 13.1104C95.0959 13.1104 113.402 31.4166 113.402 53.8916V71.352C113.402 74.1312 114.731 79.0249 116.181 81.502L123.069 92.9812C125.667 97.3312 126.15 102.587 124.398 107.36C122.646 112.133 118.84 115.758 114.067 117.329C100.775 121.8 86.6979 124.035 72.6209 124.035ZM72.6209 22.1729C55.1604 22.1729 40.9021 36.3708 40.9021 53.8916V71.352C40.9021 75.7624 39.0896 82.2874 36.8542 86.0937L29.9063 97.6333C28.5771 99.8687 28.2146 102.225 29 104.219C29.725 106.273 31.5375 107.844 34.0146 108.69C59.2688 117.148 86.0334 117.148 111.288 108.69C113.463 107.965 115.154 106.333 115.94 104.158C116.725 101.983 116.544 99.627 115.335 97.6333L108.388 86.0937C106.092 82.1666 104.34 75.702 104.34 71.2916V53.8916C104.34 36.3708 90.1417 22.1729 72.6209 22.1729Z" fill="#2E3E5C"/>
<path d="M83.8583 23.8042C83.4354 23.8042 83.0125 23.7437 82.5896 23.6229C80.8375 23.1396 79.1458 22.7771 77.5146 22.5354C72.3792 21.8708 67.425 22.2333 62.7729 23.6229C61.0812 24.1667 59.2687 23.6229 58.1208 22.3542C56.9729 21.0854 56.6104 19.2729 57.275 17.6417C59.7521 11.2979 65.7937 7.12915 72.6812 7.12915C79.5687 7.12915 85.6104 11.2375 88.0875 17.6417C88.6917 19.2729 88.3896 21.0854 87.2417 22.3542C86.3354 23.3208 85.0667 23.8042 83.8583 23.8042Z" fill="#2E3E5C"/>
<path d="M72.6208 137.81C66.6396 137.81 60.8396 135.394 56.6104 131.164C52.3813 126.935 49.9646 121.135 49.9646 115.154H59.0271C59.0271 118.719 60.4771 122.223 63.0146 124.76C65.5521 127.298 69.0563 128.748 72.6208 128.748C80.1125 128.748 86.2146 122.646 86.2146 115.154H95.2771C95.2771 127.66 85.1271 137.81 72.6208 137.81Z" fill="#2E3E5C"/>
</svg>
