<svg width="145" height="145" viewBox="0 0 145 145" fill="none" xmlns="http://www.w3.org/2000/svg">
<path d="M116.846 87.5437L110.804 77.5145C109.535 75.2791 108.387 71.0499 108.387 68.5728V53.2874C108.387 39.0895 100.05 26.8249 88.0271 21.0853C84.8854 15.527 79.0854 12.0833 72.4396 12.0833C65.8541 12.0833 59.9333 15.6478 56.7916 21.2666C45.0104 27.127 36.8541 39.2708 36.8541 53.2874V68.5728C36.8541 71.0499 35.7062 75.2791 34.4375 77.4541L28.3354 87.5437C25.9187 91.5916 25.375 96.0624 26.8854 100.171C28.3354 104.219 31.7791 107.36 36.25 108.871C47.9708 112.858 60.2958 114.792 72.6208 114.792C84.9458 114.792 97.2708 112.858 108.992 108.931C113.221 107.542 116.483 104.34 118.054 100.171C119.625 96.002 119.202 91.4103 116.846 87.5437Z" fill="#2E3E5C"/>
<path d="M89.5979 120.894C87.0604 127.902 80.3542 132.917 72.5 132.917C67.7271 132.917 63.0146 130.983 59.6917 127.54C57.7584 125.727 56.3084 123.31 55.4625 120.833C56.2479 120.954 57.0334 121.014 57.8792 121.135C59.2688 121.317 60.7188 121.498 62.1688 121.619C65.6125 121.921 69.1167 122.102 72.6209 122.102C76.0646 122.102 79.5084 121.921 82.8917 121.619C84.1604 121.498 85.4292 121.437 86.6375 121.256C87.6042 121.135 88.5709 121.015 89.5979 120.894Z" fill="#2E3E5C"/>
</svg>
