<svg width="145" height="145" viewBox="0 0 145 145" fill="none" xmlns="http://www.w3.org/2000/svg">
<path d="M90.625 137.448H54.375C21.5687 137.448 7.55206 123.431 7.55206 90.6249V54.3749C7.55206 21.5687 21.5687 7.552 54.375 7.552H90.625C123.431 7.552 137.448 21.5687 137.448 54.3749V90.6249C137.448 123.431 123.431 137.448 90.625 137.448ZM54.375 16.6145C26.5229 16.6145 16.6146 26.5228 16.6146 54.3749V90.6249C16.6146 118.477 26.5229 128.385 54.375 128.385H90.625C118.477 128.385 128.385 118.477 128.385 90.6249V54.3749C128.385 26.5228 118.477 16.6145 90.625 16.6145H54.375Z" fill="#2E3E5C"/>
<path d="M53.2271 110.26C52.8042 110.26 52.3209 110.26 51.8979 110.14L44.7084 109.173C40.3584 108.569 36.5521 104.823 35.8875 100.352L34.8604 93.0417C34.4375 90.1417 35.6459 86.4563 37.7604 84.2813L51.5354 70.5063C49.4813 60.7188 52.4417 50.5688 59.6313 43.4396C71.1709 31.9 90.0208 31.9 101.56 43.4396C107.179 49.0584 110.26 56.4896 110.26 64.4042C110.26 72.3188 107.179 79.8104 101.56 85.3688C94.3708 92.4979 84.2209 95.4584 74.4938 93.4042L60.6584 107.179C58.9063 109.052 55.9459 110.26 53.2271 110.26ZM80.5959 43.8021C75.3396 43.8021 70.0229 45.7958 66.0354 49.8438C60.5979 55.2813 58.6646 63.1959 60.9 70.5667C61.3834 72.1979 60.9604 73.8896 59.7521 75.0979L44.1646 90.6854C44.0438 90.8667 43.8021 91.5313 43.8021 91.7729L44.8292 99.0229C44.8896 99.3854 45.5542 100.05 45.9167 100.11L53.1667 101.138C53.4688 101.077 54.0729 100.956 54.2542 100.775L69.9021 85.1271C71.1104 83.9188 72.8625 83.5563 74.4334 84.0396C81.7438 86.3354 89.6584 84.4021 95.0959 78.9646C98.9625 75.0979 101.138 69.9021 101.138 64.4042C101.138 58.9063 99.0229 53.7104 95.0959 49.8438C91.1688 45.8563 85.8521 43.8021 80.5959 43.8021Z" fill="#2E3E5C"/>
<path d="M63.1354 102.889C61.9875 102.889 60.8396 102.467 59.9334 101.56L54.7375 96.3645C52.9854 94.6124 52.9854 91.7124 54.7375 89.9603C56.4896 88.2082 59.3896 88.2082 61.1417 89.9603L66.3375 95.1561C68.0896 96.9082 68.0896 99.8082 66.3375 101.56C65.4917 102.467 64.3438 102.889 63.1354 102.889Z" fill="#2E3E5C"/>
<path d="M80.8375 71.2918C79.9917 71.2918 79.2062 71.1709 78.4812 70.8689C77.7562 70.5668 77.0917 70.0834 76.5479 69.5397C75.4 68.3918 74.7354 66.8814 74.7354 65.2501C74.7354 63.6793 75.4 62.1085 76.5479 61.021C77.9375 59.571 80.0521 58.9064 81.9854 59.3293C82.3479 59.4501 82.7708 59.5105 83.1333 59.6918C83.4958 59.873 83.8583 60.0543 84.1604 60.2355C84.4625 60.4772 84.825 60.7189 85.0667 61.021C86.2146 62.1085 86.8792 63.6793 86.8792 65.2501C86.8792 66.0959 86.6979 66.8209 86.3958 67.6064C86.0937 68.3314 85.6708 68.9959 85.0667 69.5397C83.9187 70.6876 82.4083 71.2918 80.8375 71.2918Z" fill="#2E3E5C"/>
</svg>
