<svg width="145" height="145" viewBox="0 0 145 145" fill="none" xmlns="http://www.w3.org/2000/svg">
<path d="M37.3375 137.448C36.7333 137.448 36.0687 137.388 35.525 137.327L22.4146 135.515C16.1312 134.669 10.4521 129.05 9.48539 122.646L7.67289 109.415C7.06872 105.186 8.88122 99.6876 11.9021 96.6064L38.425 70.0834C34.1354 52.9251 39.0896 34.8001 51.7166 22.2939C71.2916 2.77927 103.131 2.71886 122.767 22.2939C132.252 31.7793 137.448 44.4064 137.448 57.8189C137.448 71.2314 132.252 83.8584 122.767 93.3439C110.079 105.911 92.0145 110.865 74.9771 106.515L48.3937 133.038C45.8562 135.696 41.325 137.448 37.3375 137.448ZM87.1812 16.6751C76.6083 16.6751 66.0958 20.6626 58.0604 28.698C47.1854 39.5126 43.2583 55.3418 47.7896 70.0834C48.2729 71.7147 47.85 73.4064 46.6416 74.6147L18.2458 103.011C17.2187 104.038 16.3729 106.696 16.5541 108.086L18.3666 121.317C18.7291 123.613 21.2062 126.211 23.5021 126.513L36.6729 128.325C38.1229 128.567 40.7812 127.721 41.8083 126.694L70.325 98.2376C71.5333 97.0293 73.2854 96.6668 74.8562 97.1501C89.4166 101.742 105.306 97.8147 116.181 86.9397C123.915 79.2064 128.204 68.8147 128.204 57.8189C128.204 46.7626 123.915 36.4314 116.181 28.698C108.327 20.723 97.7541 16.6751 87.1812 16.6751Z" fill="#2E3E5C"/>
<path d="M55.5229 124.096C54.375 124.096 53.2271 123.673 52.3209 122.767L38.425 108.871C36.6729 107.119 36.6729 104.219 38.425 102.467C40.1771 100.715 43.0771 100.715 44.8292 102.467L58.725 116.362C60.4771 118.115 60.4771 121.015 58.725 122.767C57.8188 123.673 56.6709 124.096 55.5229 124.096Z" fill="#2E3E5C"/>
<path d="M87.6041 70.9895C80.1125 70.9895 74.0104 64.8874 74.0104 57.3958C74.0104 49.9041 80.1125 43.802 87.6041 43.802C95.0958 43.802 101.198 49.9041 101.198 57.3958C101.198 64.8874 95.0958 70.9895 87.6041 70.9895ZM87.6041 52.8645C85.127 52.8645 83.0729 54.9187 83.0729 57.3958C83.0729 59.8728 85.127 61.927 87.6041 61.927C90.0812 61.927 92.1354 59.8728 92.1354 57.3958C92.1354 54.9187 90.0812 52.8645 87.6041 52.8645Z" fill="#2E3E5C"/>
</svg>
