<svg width="145" height="145" viewBox="0 0 145 145" fill="none" xmlns="http://www.w3.org/2000/svg">
<path d="M80.0521 72.4999C84.223 72.4999 87.6042 69.1187 87.6042 64.9478C87.6042 60.7769 84.223 57.3958 80.0521 57.3958C75.8812 57.3958 72.5 60.7769 72.5 64.9478C72.5 69.1187 75.8812 72.4999 80.0521 72.4999Z" fill="#2E3E5C"/>
<path d="M97.8146 12.0833H47.1854C25.1937 12.0833 12.0833 25.1937 12.0833 47.1853V97.7541C12.0833 119.806 25.1937 132.917 47.1854 132.917H97.7542C119.746 132.917 132.856 119.806 132.856 97.8145V47.1853C132.917 25.1937 119.806 12.0833 97.8146 12.0833ZM96.0021 81.3812C89.7792 87.5437 80.8979 89.477 73.0437 86.9999L66.6396 93.3437C66.0958 93.8874 65.1292 93.8874 64.525 93.3437L58.6646 87.4833C57.8187 86.6374 56.3687 86.6374 55.4625 87.4833C54.5562 88.3291 54.6167 89.7791 55.4625 90.6853L61.3229 96.5458C61.9271 97.1499 61.9271 98.1166 61.3229 98.6603L58.8458 101.137C57.8187 102.225 55.825 102.89 54.375 102.708L47.7896 101.802C45.6146 101.5 43.6208 99.4458 43.2583 97.2708L42.3521 90.6853C42.1104 89.2353 42.8354 87.2416 43.8021 86.2145L58 72.0166C55.5833 64.1624 57.4562 55.2812 63.6791 49.0583C72.5604 40.177 87.0604 40.177 96.0021 49.0583C104.944 57.9395 104.944 72.4395 96.0021 81.3812Z" fill="#2E3E5C"/>
</svg>
