<svg width="145" height="145" viewBox="0 0 145 145" fill="none" xmlns="http://www.w3.org/2000/svg">
<path d="M73.4643 70.2041C73.283 70.2041 73.1622 70.2041 72.9809 70.2041C72.6789 70.1437 72.2559 70.1437 71.8934 70.2041C54.3726 69.6603 41.1414 55.8853 41.1414 38.9083C41.1414 21.6291 55.2184 7.552 72.4976 7.552C89.7768 7.552 103.854 21.6291 103.854 38.9083C103.793 55.8853 90.5018 69.6603 73.6455 70.2041C73.5851 70.2041 73.5247 70.2041 73.4643 70.2041ZM72.4976 16.6145C60.233 16.6145 50.2039 26.6437 50.2039 38.9083C50.2039 50.9916 59.6289 60.7187 71.6518 61.1416C71.9539 61.0812 72.7997 61.0812 73.5851 61.1416C85.4268 60.5978 94.7309 50.8708 94.7914 38.9083C94.7914 26.6437 84.7622 16.6145 72.4976 16.6145Z" fill="#2E3E5C"/>
<path d="M73.5247 136.24C61.6831 136.24 49.781 133.219 40.7789 127.177C32.381 121.619 27.7893 114.006 27.7893 105.729C27.7893 97.4522 32.381 89.7792 40.7789 84.1605C58.9039 72.1376 88.2664 72.1376 106.271 84.1605C114.608 89.7188 119.26 97.3313 119.26 105.608C119.26 113.885 114.668 121.558 106.271 127.177C97.2081 133.219 85.3664 136.24 73.5247 136.24ZM45.7935 91.773C39.9935 95.6397 36.8518 100.594 36.8518 105.79C36.8518 110.925 40.0539 115.879 45.7935 119.685C60.8372 129.775 86.2122 129.775 101.256 119.685C107.056 115.819 110.198 110.865 110.198 105.669C110.198 100.533 106.996 95.5792 101.256 91.773C86.2122 81.7438 60.8372 81.7438 45.7935 91.773Z" fill="#2E3E5C"/>
</svg>
