<svg width="145" height="145" viewBox="0 0 145 145" fill="none" xmlns="http://www.w3.org/2000/svg">
<path d="M72.5 12.0833C56.6709 12.0833 43.8021 24.952 43.8021 40.7812C43.8021 56.3083 55.9459 68.8749 71.775 69.4187C72.2584 69.3582 72.7417 69.3582 73.1042 69.4187C73.225 69.4187 73.2855 69.4187 73.4063 69.4187C73.4667 69.4187 73.4667 69.4187 73.5271 69.4187C88.9938 68.8749 101.138 56.3083 101.198 40.7812C101.198 24.952 88.3292 12.0833 72.5 12.0833Z" fill="#2E3E5C"/>
<path d="M103.192 85.4896C86.3354 74.2521 58.8458 74.2521 41.8688 85.4896C34.1958 90.6251 29.9667 97.573 29.9667 105.004C29.9667 112.435 34.1958 119.323 41.8083 124.398C50.2667 130.077 61.3833 132.917 72.5 132.917C83.6167 132.917 94.7333 130.077 103.192 124.398C110.804 119.263 115.033 112.375 115.033 104.883C114.973 97.4522 110.804 90.5646 103.192 85.4896Z" fill="#2E3E5C"/>
</svg>
