<svg width="145" height="145" viewBox="0 0 145 145" fill="none" xmlns="http://www.w3.org/2000/svg">
<path d="M72.4994 134.427C67.5453 134.427 62.5911 132.856 58.4827 129.775L27.0057 106.213C21.1453 101.802 17.6412 94.7937 17.6412 87.4833V10.6333H127.358V87.4833C127.358 94.7937 123.854 101.802 117.993 106.213L86.5161 129.775C82.4078 132.856 77.4536 134.427 72.4994 134.427ZM26.7037 19.6354V87.4229C26.7037 91.8938 28.8786 96.1833 32.4431 98.9021L63.9202 122.465C68.9952 126.271 76.064 126.271 81.139 122.465L112.616 98.9021C116.181 96.1833 118.356 91.8938 118.356 87.4229V19.6354H26.7037Z" fill="#2E3E5C"/>
<path d="M132.917 19.6355H12.0833C9.60623 19.6355 7.55206 17.5813 7.55206 15.1042C7.55206 12.6272 9.60623 10.573 12.0833 10.573H132.917C135.394 10.573 137.448 12.6272 137.448 15.1042C137.448 17.5813 135.394 19.6355 132.917 19.6355Z" fill="#2E3E5C"/>
<path d="M96.6666 52.8645H48.3333C45.8562 52.8645 43.8021 50.8103 43.8021 48.3333C43.8021 45.8562 45.8562 43.802 48.3333 43.802H96.6666C99.1437 43.802 101.198 45.8562 101.198 48.3333C101.198 50.8103 99.1437 52.8645 96.6666 52.8645Z" fill="#2E3E5C"/>
<path d="M96.6666 83.073H48.3333C45.8562 83.073 43.8021 81.0188 43.8021 78.5417C43.8021 76.0647 45.8562 74.0105 48.3333 74.0105H96.6666C99.1437 74.0105 101.198 76.0647 101.198 78.5417C101.198 81.0188 99.1437 83.073 96.6666 83.073Z" fill="#2E3E5C"/>
</svg>
