<svg width="145" height="145" viewBox="0 0 145 145" fill="none" xmlns="http://www.w3.org/2000/svg">
<path d="M132.917 19.6355H12.0833C9.60623 19.6355 7.55206 17.5813 7.55206 15.1042C7.55206 12.6272 9.60623 10.573 12.0833 10.573H132.917C135.394 10.573 137.448 12.6272 137.448 15.1042C137.448 17.5813 135.394 19.6355 132.917 19.6355Z" fill="#2E3E5C"/>
<path d="M22.1729 15.1042V87.423C22.1729 93.3438 24.9521 98.9626 29.725 102.527L61.2021 126.09C67.9083 131.104 77.1521 131.104 83.8583 126.09L115.335 102.527C120.108 98.9626 122.887 93.3438 122.887 87.423V15.1042H22.1729ZM96.6667 83.073H48.3333C45.8562 83.073 43.8021 81.0188 43.8021 78.5417C43.8021 76.0647 45.8562 74.0105 48.3333 74.0105H96.6667C99.1437 74.0105 101.198 76.0647 101.198 78.5417C101.198 81.0188 99.1437 83.073 96.6667 83.073ZM96.6667 52.8647H48.3333C45.8562 52.8647 43.8021 50.8105 43.8021 48.3334C43.8021 45.8563 45.8562 43.8022 48.3333 43.8022H96.6667C99.1437 43.8022 101.198 45.8563 101.198 48.3334C101.198 50.8105 99.1437 52.8647 96.6667 52.8647Z" fill="#2E3E5C"/>
</svg>
