<svg width="145" height="145" viewBox="0 0 145 145" fill="none" xmlns="http://www.w3.org/2000/svg">
<path d="M53.8313 124.881C52.6834 124.881 51.5354 124.458 50.6292 123.552C48.8771 121.8 48.8771 118.9 50.6292 117.148L90.0209 77.7562C92.9209 74.8562 92.9209 70.1437 90.0209 67.2437L50.6292 27.852C48.8771 26.0999 48.8771 23.1999 50.6292 21.4479C52.3813 19.6958 55.2813 19.6958 57.0334 21.4479L96.425 60.8395C99.5063 63.9208 101.258 68.0895 101.258 72.4999C101.258 76.9104 99.5667 81.0791 96.425 84.1604L57.0334 123.552C56.1271 124.398 54.9792 124.881 53.8313 124.881Z" fill="#2E3E5C"/>
</svg>
