<svg width="145" height="145" viewBox="0 0 145 145" fill="none" xmlns="http://www.w3.org/2000/svg">
<path d="M103.916 137.448C85.4284 137.448 70.3848 122.404 70.3848 103.917C70.3848 85.4292 85.4284 70.3855 103.916 70.3855C122.403 70.3855 137.447 85.4292 137.447 103.917C137.447 122.404 122.403 137.448 103.916 137.448ZM103.916 79.448C90.443 79.448 79.4473 90.4438 79.4473 103.917C79.4473 117.39 90.443 128.385 103.916 128.385C117.389 128.385 128.385 117.39 128.385 103.917C128.385 90.4438 117.389 79.448 103.916 79.448Z" fill="#2E3E5C"/>
<path d="M114.73 108.811H93.041C90.5639 108.811 88.5098 106.756 88.5098 104.279C88.5098 101.802 90.5639 99.748 93.041 99.748H114.73C117.207 99.748 119.262 101.802 119.262 104.279C119.262 106.756 117.268 108.811 114.73 108.811Z" fill="#2E3E5C"/>
<path d="M103.918 119.927C101.441 119.927 99.3866 117.873 99.3866 115.396V93.7063C99.3866 91.2292 101.441 89.175 103.918 89.175C106.395 89.175 108.449 91.2292 108.449 93.7063V115.396C108.449 117.873 106.395 119.927 103.918 119.927Z" fill="#2E3E5C"/>
<path d="M72.5 130.802C70.6271 130.802 68.7542 130.561 67.2438 130.017C51.7772 124.761 7.55212 99.1437 7.55212 52.5021C7.55212 31.3562 24.65 14.1978 45.675 14.1978C55.7646 14.1978 65.4313 18.2458 72.5 25.3146C79.5688 18.2458 89.2959 14.1978 99.3251 14.1978C120.35 14.1978 137.448 31.3562 137.448 52.5021C137.448 64.2833 134.608 75.5813 128.989 86.1542C128.325 87.423 127.056 88.3293 125.606 88.5105C124.096 88.6918 122.706 88.2082 121.679 87.1207C116.967 82.1665 110.623 79.3876 103.856 79.3876C90.3834 79.3876 79.3876 90.3833 79.3876 103.856C79.3876 109.837 81.6229 115.638 85.6708 120.169C86.6375 121.256 86.9999 122.706 86.6978 124.096C86.3957 125.485 85.4292 126.694 84.1604 127.298C81.7437 128.385 79.569 129.292 77.5752 129.956C76.1856 130.56 74.373 130.802 72.5 130.802ZM45.675 23.2603C29.6646 23.2603 16.6146 36.3708 16.6146 52.5021C16.6146 93.8271 56.3083 116.664 70.2042 121.437C71.2917 121.86 73.6479 121.8 74.7354 121.437C74.9167 121.377 75.0981 121.317 75.2793 121.256C72.1377 116.06 70.3856 110.079 70.3856 103.917C70.3856 85.4292 85.4293 70.3855 103.917 70.3855C111.046 70.3855 117.813 72.6208 123.492 76.6687C126.754 68.9354 128.385 60.8396 128.385 52.5021C128.385 36.3708 115.335 23.2603 99.3251 23.2603C90.2626 23.2603 81.5624 27.6106 76.1249 34.921C74.4332 37.2168 70.5669 37.2168 68.8752 34.921C63.4377 27.6106 54.7375 23.2603 45.675 23.2603Z" fill="#2E3E5C"/>
</svg>
