<svg width="145" height="145" viewBox="0 0 145 145" fill="none" xmlns="http://www.w3.org/2000/svg">
<path d="M124.942 84.0397V83.9792C119.625 78.3605 112.194 74.9167 103.917 74.9167C87.9062 74.9167 74.9166 87.9063 74.9166 103.917C74.9166 111.348 77.7562 118.115 82.3479 123.25C87.6645 129.171 95.3375 132.917 103.917 132.917C119.927 132.917 132.917 119.927 132.917 103.917C132.917 96.2438 129.896 89.2355 124.942 84.0397ZM114.731 108.811H108.448V115.396C108.448 117.873 106.394 119.927 103.917 119.927C101.44 119.927 99.3854 117.873 99.3854 115.396V108.811H93.102C90.5645 108.811 88.5708 106.817 88.5708 104.279C88.5708 101.802 90.5041 99.8084 93.0416 99.748H99.3854V93.7063C99.3854 93.5855 99.3854 93.4647 99.4458 93.3438C99.5666 91.048 101.56 89.1751 103.917 89.1751C106.333 89.1751 108.327 91.1084 108.448 93.5251V99.748H114.731C117.269 99.748 119.262 101.802 119.262 104.279C119.262 106.817 117.269 108.811 114.731 108.811Z" fill="#2E3E5C"/>
<path d="M132.917 52.7439C132.917 59.9334 131.769 66.5793 129.775 72.7418C129.413 74.0105 127.902 74.373 126.815 73.5876C120.229 68.6939 112.194 66.0959 103.917 66.0959C82.9521 66.0959 65.8542 83.1939 65.8542 104.158C65.8542 110.683 67.5459 117.088 70.748 122.767C71.7146 124.458 70.5667 126.633 68.7542 125.969C54.1938 121.015 24.7709 102.95 15.225 72.7418C13.2313 66.5793 12.0834 59.9334 12.0834 52.7439C12.0834 34.0751 27.1271 18.9709 45.675 18.9709C56.6105 18.9709 66.398 24.2876 72.5 32.4439C78.6021 24.2876 88.3896 18.9709 99.325 18.9709C117.873 18.9709 132.917 34.0751 132.917 52.7439Z" fill="#2E3E5C"/>
</svg>
