<svg width="145" height="145" viewBox="0 0 145 145" fill="none" xmlns="http://www.w3.org/2000/svg">
<path d="M109.173 51.4146L57.4563 25.5563C22.7167 8.15627 8.45834 22.4146 25.8583 57.1542L31.1146 67.6667C32.625 70.7479 32.625 74.3125 31.1146 77.3938L25.8583 87.8459C8.45834 122.585 22.6563 136.844 57.4563 119.444L109.173 93.5854C132.373 81.9854 132.373 63.0146 109.173 51.4146ZM89.6583 77.0313H57.0333C54.5563 77.0313 52.5021 74.9771 52.5021 72.5C52.5021 70.0229 54.5563 67.9688 57.0333 67.9688H89.6583C92.1354 67.9688 94.1896 70.0229 94.1896 72.5C94.1896 74.9771 92.1354 77.0313 89.6583 77.0313Z" fill="#2E3E5C"/>
</svg>
