<svg width="145" height="145" viewBox="0 0 145 145" fill="none" xmlns="http://www.w3.org/2000/svg">
<path d="M72.5 95.1562C59.9938 95.1562 49.8438 85.0062 49.8438 72.5C49.8438 59.9938 59.9938 49.8438 72.5 49.8438C85.0062 49.8438 95.1562 59.9938 95.1562 72.5C95.1562 85.0062 85.0062 95.1562 72.5 95.1562ZM72.5 58.9062C65.0083 58.9062 58.9062 65.0083 58.9062 72.5C58.9062 79.9917 65.0083 86.0938 72.5 86.0938C79.9917 86.0938 86.0938 79.9917 86.0938 72.5C86.0938 65.0083 79.9917 58.9062 72.5 58.9062Z" fill="#2E3E5C"/>
<path d="M91.8938 134.065C90.625 134.065 89.3563 133.883 88.0875 133.581C84.3417 132.554 81.2 130.198 79.2063 126.875L78.4813 125.667C74.9167 119.504 70.023 119.504 66.4584 125.667L65.7938 126.815C63.8 130.198 60.6584 132.615 56.9125 133.581C53.1063 134.608 49.1792 134.065 45.8563 132.071L35.4646 126.09C31.7792 123.975 29.1209 120.531 27.973 116.362C26.8855 112.194 27.4292 107.904 29.5438 104.219C31.2959 101.137 31.7792 98.3583 30.7521 96.6062C29.725 94.8541 27.1271 93.827 23.5625 93.827C14.7417 93.827 7.55212 86.6374 7.55212 77.8166V67.1833C7.55212 58.3624 14.7417 51.1729 23.5625 51.1729C27.1271 51.1729 29.725 50.1458 30.7521 48.3937C31.7792 46.6416 31.3563 43.8624 29.5438 40.7812C27.4292 37.0958 26.8855 32.7458 27.973 28.6374C29.0605 24.4687 31.7188 21.0249 35.4646 18.9104L45.9167 12.9291C52.7438 8.88119 61.7459 11.2374 65.8542 18.1854L66.5792 19.3937C70.1438 25.5562 75.0375 25.5562 78.6021 19.3937L79.2667 18.2458C83.375 11.2374 92.3771 8.88119 99.2646 12.9895L109.656 18.9708C113.342 21.0854 116 24.5291 117.148 28.6979C118.235 32.8666 117.692 37.1562 115.577 40.8416C113.825 43.9229 113.342 46.702 114.369 48.4541C115.396 50.2062 117.994 51.2333 121.558 51.2333C130.379 51.2333 137.569 58.4229 137.569 67.2437V77.877C137.569 86.6979 130.379 93.8874 121.558 93.8874C117.994 93.8874 115.396 94.9145 114.369 96.6666C113.342 98.4187 113.765 101.198 115.577 104.279C117.692 107.965 118.296 112.315 117.148 116.423C116.06 120.592 113.402 124.035 109.656 126.15L99.2042 132.131C96.9084 133.4 94.4313 134.065 91.8938 134.065ZM72.5 111.71C77.8771 111.71 82.8917 115.094 86.3355 121.075L87 122.223C87.725 123.492 88.9334 124.398 90.3834 124.76C91.8334 125.123 93.2834 124.942 94.4917 124.217L104.944 118.175C106.515 117.269 107.723 115.758 108.206 113.946C108.69 112.133 108.448 110.26 107.542 108.69C104.098 102.769 103.675 96.6666 106.333 92.0145C108.992 87.3624 114.49 84.7041 121.377 84.7041C125.244 84.7041 128.325 81.6229 128.325 77.7562V67.1229C128.325 63.3166 125.244 60.1749 121.377 60.1749C114.49 60.1749 108.992 57.5166 106.333 52.8645C103.675 48.2124 104.098 42.1104 107.542 36.1895C108.448 34.6187 108.69 32.7458 108.206 30.9333C107.723 29.1208 106.575 27.6708 105.004 26.7041L94.5521 20.7229C91.9542 19.152 88.5105 20.0583 86.9396 22.7166L86.275 23.8645C82.8313 29.8458 77.8167 33.2291 72.4396 33.2291C67.0625 33.2291 62.048 29.8458 58.6042 23.8645L57.9396 22.6562C56.4292 20.1187 53.0459 19.2124 50.448 20.7229L39.9959 26.7645C38.425 27.6708 37.2167 29.1812 36.7334 30.9937C36.25 32.8062 36.4917 34.6791 37.398 36.2499C40.8417 42.1708 41.2646 48.2729 38.6063 52.9249C35.948 57.577 30.45 60.2354 23.5625 60.2354C19.6959 60.2354 16.6146 63.3166 16.6146 67.1833V77.8166C16.6146 81.6229 19.6959 84.7645 23.5625 84.7645C30.45 84.7645 35.948 87.4229 38.6063 92.0749C41.2646 96.727 40.8417 102.829 37.398 108.75C36.4917 110.321 36.25 112.194 36.7334 114.006C37.2167 115.819 38.3646 117.269 39.9355 118.235L50.3875 124.217C51.6563 125.002 53.1667 125.183 54.5563 124.821C56.0063 124.458 57.2146 123.492 58 122.223L58.6646 121.075C62.1084 115.154 67.123 111.71 72.5 111.71Z" fill="#2E3E5C"/>
</svg>
