<svg width="145" height="145" viewBox="0 0 145 145" fill="none" xmlns="http://www.w3.org/2000/svg">
<path d="M121.438 55.7043C110.502 55.7043 106.031 47.9709 111.469 38.4855C114.61 32.9876 112.738 25.9792 107.24 22.8376L96.7875 16.8563C92.0146 14.0168 85.8521 15.7084 83.0125 20.4813L82.348 21.6293C76.9105 31.1147 67.9688 31.1147 62.4709 21.6293L61.8063 20.4813C59.0875 15.7084 52.925 14.0168 48.1521 16.8563L37.7 22.8376C32.2021 25.9792 30.3292 33.048 33.4709 38.5459C38.9688 47.9709 34.498 55.7043 23.5625 55.7043C17.2792 55.7043 12.0834 60.8397 12.0834 67.1834V77.8167C12.0834 84.1001 17.2188 89.2959 23.5625 89.2959C34.498 89.2959 38.9688 97.0292 33.4709 106.515C30.3292 112.013 32.2021 119.021 37.7 122.163L48.1521 128.144C52.925 130.983 59.0875 129.292 61.9271 124.519L62.5917 123.371C68.0292 113.886 76.9709 113.886 82.4688 123.371L83.1334 124.519C85.973 129.292 92.1355 130.983 96.9084 128.144L107.36 122.163C112.858 119.021 114.731 111.952 111.59 106.515C106.092 97.0292 110.563 89.2959 121.498 89.2959C127.781 89.2959 132.977 84.1605 132.977 77.8167V67.1834C132.917 60.9001 127.781 55.7043 121.438 55.7043ZM72.5 92.1355C61.6855 92.1355 52.8646 83.3147 52.8646 72.5001C52.8646 61.6855 61.6855 52.8647 72.5 52.8647C83.3146 52.8647 92.1355 61.6855 92.1355 72.5001C92.1355 83.3147 83.3146 92.1355 72.5 92.1355Z" fill="#2E3E5C"/>
</svg>
