<svg width="145" height="145" viewBox="0 0 145 145" fill="none" xmlns="http://www.w3.org/2000/svg">
<path d="M72.5 137.448C36.673 137.448 7.55212 108.327 7.55212 72.4999C7.55212 36.6728 36.673 7.552 72.5 7.552C108.327 7.552 137.448 36.6728 137.448 72.4999C137.448 108.327 108.327 137.448 72.5 137.448ZM72.5 16.6145C41.6875 16.6145 16.6146 41.6874 16.6146 72.4999C16.6146 103.312 41.6875 128.385 72.5 128.385C103.313 128.385 128.385 103.312 128.385 72.4999C128.385 41.6874 103.313 16.6145 72.5 16.6145Z" fill="#2E3E5C"/>
<path d="M63.9208 94.1291C62.7125 94.1291 61.5646 93.6457 60.7187 92.7999L43.6208 75.702C41.8687 73.9499 41.8687 71.0499 43.6208 69.2978C45.3729 67.5458 48.2729 67.5458 50.025 69.2978L63.9208 83.1937L94.975 52.1395C96.7271 50.3874 99.6271 50.3874 101.379 52.1395C103.131 53.8916 103.131 56.7916 101.379 58.5437L67.1229 92.7999C66.2771 93.6457 65.1292 94.1291 63.9208 94.1291Z" fill="#2E3E5C"/>
</svg>
