<svg width="145" height="145" viewBox="0 0 145 145" fill="none" xmlns="http://www.w3.org/2000/svg">
<path d="M72.5 12.0833C39.2105 12.0833 12.0834 39.2103 12.0834 72.4999C12.0834 105.79 39.2105 132.917 72.5 132.917C105.79 132.917 132.917 105.79 132.917 72.4999C132.917 39.2103 105.79 12.0833 72.5 12.0833ZM101.379 58.6041L67.123 92.8603C66.2771 93.7062 65.1292 94.1895 63.9209 94.1895C62.7125 94.1895 61.5646 93.7062 60.7188 92.8603L43.6209 75.7624C41.8688 74.0103 41.8688 71.1103 43.6209 69.3583C45.373 67.6062 48.273 67.6062 50.025 69.3583L63.9209 83.2541L94.975 52.1999C96.7271 50.4478 99.6271 50.4478 101.379 52.1999C103.131 53.952 103.131 56.7916 101.379 58.6041Z" fill="#2E3E5C"/>
</svg>
