<svg width="145" height="145" viewBox="0 0 145 145" fill="none" xmlns="http://www.w3.org/2000/svg">
<path d="M126.875 40.6604C126.754 40.6604 126.573 40.6604 126.392 40.6604C94.4313 37.4583 62.5313 36.25 30.9333 39.452L18.6083 40.6604C16.0708 40.902 13.8354 39.0895 13.5938 36.552C13.3521 34.0145 15.1646 31.8395 17.6417 31.5979L29.9667 30.3895C62.1083 27.127 94.6729 28.3958 127.298 31.5979C129.775 31.8395 131.588 34.075 131.346 36.552C131.165 38.9083 129.171 40.6604 126.875 40.6604Z" fill="#2E3E5C"/>
<path d="M51.3542 34.5584C51.1125 34.5584 50.8709 34.5584 50.5688 34.498C48.1521 34.075 46.4605 31.7188 46.8834 29.3021L48.2125 21.3875C49.1792 15.5875 50.5084 7.55212 64.5855 7.55212H80.4146C94.5521 7.55212 95.8813 15.8896 96.7875 21.448L98.1167 29.3021C98.5396 31.7792 96.848 34.1355 94.4313 34.498C91.9542 34.9209 89.598 33.2292 89.2355 30.8125L87.9063 22.9584C87.0605 17.7021 86.8792 16.675 80.475 16.675H64.6459C58.2417 16.675 58.1209 17.5209 57.2146 22.898L55.825 30.7521C55.4625 32.9875 53.5292 34.5584 51.3542 34.5584Z" fill="#2E3E5C"/>
<path d="M91.8937 137.448H53.1062C32.0208 137.448 31.175 125.788 30.5104 116.363L26.5833 55.5229C26.4021 53.0459 28.3354 50.8709 30.8125 50.6896C33.35 50.5688 35.4646 52.4417 35.6458 54.9188L39.5729 115.758C40.2375 124.942 40.4791 128.385 53.1062 128.385H91.8937C104.581 128.385 104.823 124.942 105.427 115.758L109.354 54.9188C109.535 52.4417 111.71 50.5688 114.187 50.6896C116.665 50.8709 118.598 52.9854 118.417 55.5229L114.49 116.363C113.825 125.788 112.979 137.448 91.8937 137.448Z" fill="#2E3E5C"/>
<path d="M82.5291 104.219H62.4104C59.9333 104.219 57.8792 102.165 57.8792 99.6875C57.8792 97.2104 59.9333 95.1562 62.4104 95.1562H82.5291C85.0062 95.1562 87.0604 97.2104 87.0604 99.6875C87.0604 102.165 85.0062 104.219 82.5291 104.219Z" fill="#2E3E5C"/>
<path d="M87.6042 80.0521H57.3959C54.9188 80.0521 52.8646 77.998 52.8646 75.5209C52.8646 73.0438 54.9188 70.9896 57.3959 70.9896H87.6042C90.0813 70.9896 92.1355 73.0438 92.1355 75.5209C92.1355 77.998 90.0813 80.0521 87.6042 80.0521Z" fill="#2E3E5C"/>
</svg>
