<svg width="145" height="145" viewBox="0 0 145 145" fill="none" xmlns="http://www.w3.org/2000/svg">
<path d="M127.298 31.598C117.571 30.6313 107.844 29.9063 98.0562 29.3625V29.3021L96.7271 21.448C95.8208 15.8896 94.4917 7.55212 80.3542 7.55212H64.525C50.4479 7.55212 49.1187 15.5271 48.1521 21.3875L46.8833 29.1209C41.2646 29.4834 35.6458 29.8459 30.0271 30.3896L17.7021 31.598C15.1646 31.8396 13.3521 34.075 13.5937 36.5521C13.8354 39.0292 16.0104 40.8417 18.5479 40.6L30.8729 39.3917C62.5312 36.25 94.4312 37.4584 126.452 40.6605C126.633 40.6605 126.754 40.6605 126.935 40.6605C129.231 40.6605 131.225 38.9084 131.467 36.5521C131.648 34.075 129.835 31.8396 127.298 31.598Z" fill="#2E3E5C"/>
<path d="M116.181 49.1791C114.731 47.6687 112.738 46.8229 110.683 46.8229H34.3167C32.2625 46.8229 30.2084 47.6687 28.8188 49.1791C27.4292 50.6895 26.6438 52.7437 26.7646 54.8583L30.5105 116.846C31.175 126.029 32.0209 137.508 53.1063 137.508H91.8938C112.979 137.508 113.825 126.09 114.49 116.846L118.235 54.9187C118.356 52.7437 117.571 50.6895 116.181 49.1791ZM82.5292 107.24H62.4104C59.9334 107.24 57.8792 105.185 57.8792 102.708C57.8792 100.231 59.9334 98.177 62.4104 98.177H82.5292C85.0063 98.177 87.0604 100.231 87.0604 102.708C87.0604 105.185 85.0063 107.24 82.5292 107.24ZM87.6042 83.0729H57.3959C54.9188 83.0729 52.8646 81.0187 52.8646 78.5416C52.8646 76.0645 54.9188 74.0104 57.3959 74.0104H87.6042C90.0813 74.0104 92.1354 76.0645 92.1354 78.5416C92.1354 81.0187 90.0813 83.0729 87.6042 83.0729Z" fill="#2E3E5C"/>
</svg>
