<svg width="145" height="145" viewBox="0 0 145 145" fill="none" xmlns="http://www.w3.org/2000/svg">
<path d="M72.5 77.0313C53.3479 77.0313 37.7604 61.4438 37.7604 42.2917C37.7604 23.1396 53.3479 7.55212 72.5 7.55212C91.652 7.55212 107.24 23.1396 107.24 42.2917C107.24 61.4438 91.652 77.0313 72.5 77.0313ZM72.5 16.6146C58.3625 16.6146 46.8229 28.1542 46.8229 42.2917C46.8229 56.4292 58.3625 67.9688 72.5 67.9688C86.6375 67.9688 98.177 56.4292 98.177 42.2917C98.177 28.1542 86.6375 16.6146 72.5 16.6146Z" fill="#2E3E5C"/>
<path d="M124.399 137.448C121.922 137.448 119.868 135.394 119.868 132.917C119.868 112.073 98.6009 95.1562 72.5009 95.1562C46.4009 95.1562 25.1343 112.073 25.1343 132.917C25.1343 135.394 23.0801 137.448 20.603 137.448C18.1259 137.448 16.0718 135.394 16.0718 132.917C16.0718 107.119 41.3863 86.0938 72.5009 86.0938C103.616 86.0938 128.93 107.119 128.93 132.917C128.93 135.394 126.876 137.448 124.399 137.448Z" fill="#2E3E5C"/>
</svg>
